# xmcd
#
# Track frame offsets:
#	150
#	9977
#	27462
#	39170
#	55465
#	64585
#	78192
#	88317
#	102035
#	117507
#	135512
#	146425
#
# Disc length: 2087 seconds
#
# Revision: 1
# Processed by: cddbd v1.5.1PL0 Copyright (c) Steve Scherf et al.
# Submitted via: audiograbber 1.83.01
#
DISCID=9608250c
DTITLE=The Louvin Brothers - Sing The Great Roy Acuff Songs
DYEAR=1967
DGENRE=Country
TTITLE0=Wait For The Light To Shine
TTITLE1=The Precious Jewel
TTITLE2=We Live In Two Different Worlds
TTITLE3=The Great Judgement Morning
TTITLE4=Branded Wherever I Go
TTITLE5=Wabash Cannonball
TTITLE6=Low And Lonely
TTITLE7=The Great Speckled Bird
TTITLE8=Wreck On The Highway
TTITLE9=Lonely Mound Of Clay
TTITLE10=Not A Word From Home
TTITLE11=Stuck-Up Blues
EXTD=
EXTT0=
EXTT1=
EXTT2=
EXTT3=
EXTT4=
EXTT5=
EXTT6=
EXTT7=
EXTT8=
EXTT9=
EXTT10=
EXTT11=
PLAYORDER=
